HIERARCHY
ROOT root
{
	OFFSET	0.000000	0.000000	0.000000
	CHANNELS 6 Xposition Yposition Zposition Zrotation Yrotation Xrotation
	JOINT lhipjoint
	{
		OFFSET	0.000000	0.000000	0.000000
		CHANNELS 3 Zrotation Yrotation Xrotation
		JOINT lfemur
		{
			OFFSET	1.645494	-1.708786	0.845660
			CHANNELS 3 Zrotation Yrotation Xrotation
			JOINT ltibia
			{
				OFFSET	2.249633	-6.180820	0.000000
				CHANNELS 3 Zrotation Yrotation Xrotation
				JOINT lfoot
				{
					OFFSET	2.717752	-7.466968	0.000000
					CHANNELS 3 Zrotation Yrotation Xrotation
					JOINT ltoes
					{
						OFFSET	0.187679	-0.515643	2.247368
						CHANNELS 3 Zrotation Yrotation Xrotation
						End Site
						{
							OFFSET	0.000000	-0.000000	1.159350
						}
					}
				}
			}
		}
	}
	JOINT rhipjoint
	{
		OFFSET	0.000000	0.000000	0.000000
		CHANNELS 3 Zrotation Yrotation Xrotation
		JOINT rfemur
		{
			OFFSET	-1.588298	-1.708789	0.845662
			CHANNELS 3 Zrotation Yrotation Xrotation
			JOINT rtibia
			{
				OFFSET	-2.250064	-6.182003	0.000000
				CHANNELS 3 Zrotation Yrotation Xrotation
				JOINT rfoot
				{
					OFFSET	-2.728293	-7.495929	0.000000
					CHANNELS 3 Zrotation Yrotation Xrotation
					JOINT rtoes
					{
						OFFSET	-0.215414	-0.591846	2.106425
						CHANNELS 3 Zrotation Yrotation Xrotation
						End Site
						{
							OFFSET	-0.000000	-0.000000	1.098380
						}
					}
				}
			}
		}
	}
	JOINT lowerback
	{
		OFFSET	0.000000	0.000000	0.000000
		CHANNELS 3 Zrotation Yrotation Xrotation
		JOINT upperback
		{
			OFFSET	0.031419	2.104964	-0.110379
			CHANNELS 3 Zrotation Yrotation Xrotation
			JOINT thorax
			{
				OFFSET	-0.018626	2.108971	-0.069557
				CHANNELS 3 Zrotation Yrotation Xrotation
				JOINT lowerneck
				{
					OFFSET	-0.034945	2.110023	-0.018114
					CHANNELS 3 Zrotation Yrotation Xrotation
					JOINT upperneck
					{
						OFFSET	-0.022675	1.732376	0.004511
						CHANNELS 3 Zrotation Yrotation Xrotation
						JOINT head
						{
							OFFSET	-0.058084	1.547243	-0.617485
							CHANNELS 3 Zrotation Yrotation Xrotation
							End Site
							{
								OFFSET	-0.013955	1.714682	-0.210818
							}
						}
					}
				}
				JOINT lclavicle
				{
					OFFSET	-0.034945	2.110023	-0.018114
					CHANNELS 3 Zrotation Yrotation Xrotation
					JOINT lhumerus
					{
						OFFSET	3.448981	0.502979	0.219205
						CHANNELS 3 Zrotation Yrotation Xrotation
						JOINT lradius
						{
							OFFSET	5.419170	-0.000000	-0.000000
							CHANNELS 3 Zrotation Yrotation Xrotation
							JOINT lwrist
							{
								OFFSET	2.443730	-0.000000	0.000000
								CHANNELS 3 Zrotation Yrotation Xrotation
								JOINT lhand
								{
									OFFSET	1.221860	-0.000000	0.000000
									CHANNELS 3 Zrotation Yrotation Xrotation
									JOINT lfingers
									{
										OFFSET	0.727502	-0.000000	0.000000
										CHANNELS 3 Zrotation Yrotation Xrotation
										End Site
										{
											OFFSET	0.586531	-0.000000	0.000000
										}
									}
								}
								JOINT lthumb
								{
									OFFSET	1.221860	-0.000000	0.000000
									CHANNELS 3 Zrotation Yrotation Xrotation
									End Site
									{
										OFFSET	0.595487	-0.000000	0.595487
									}
								}
							}
						}
					}
				}
				JOINT rclavicle
				{
					OFFSET	-0.034945	2.110023	-0.018114
					CHANNELS 3 Zrotation Yrotation Xrotation
					JOINT rhumerus
					{
						OFFSET	-3.230153	0.558301	0.310511
						CHANNELS 3 Zrotation Yrotation Xrotation
						JOINT rradius
						{
							OFFSET	-5.589760	-0.000102	0.000137
							CHANNELS 3 Zrotation Yrotation Xrotation
							JOINT rwrist
							{
								OFFSET	-2.480600	-0.000000	0.000000
								CHANNELS 3 Zrotation Yrotation Xrotation
								JOINT rhand
								{
									OFFSET	-1.240300	-0.000000	0.000000
									CHANNELS 3 Zrotation Yrotation Xrotation
									JOINT rfingers
									{
										OFFSET	-0.816009	-0.000000	0.000000
										CHANNELS 3 Zrotation Yrotation Xrotation
										End Site
										{
											OFFSET	-0.657887	-0.000000	0.000000
										}
									}
								}
								JOINT rthumb
								{
									OFFSET	-1.240300	-0.000000	0.000000
									CHANNELS 3 Zrotation Yrotation Xrotation
									End Site
									{
										OFFSET	-0.667932	-0.000000	0.667932
									}
								}
							}
						}
					}
				}
			}
		}
	}
}
MOTION
Frames:	9
Frame Time:	0.008333
4.815819 16.350995 -17.509492 -4.571695 -1.267457 30.349139 0.000000 0.000000 0.000000 -35.962725 8.505871 -48.502791 9.576697 17.706732 56.797302 -2.977412 46.817130 17.573004 0.349833 3.800230 10.515316 0.000000 0.000000 0.000000 29.565720 14.845865 -55.458270 -3.547738 -11.538360 34.086561 -0.064357 -14.466050 -20.787184 -0.102715 -2.066675 5.689956 1.797822 -0.205040 11.075358 12.060696 1.768660 -8.549744 12.852485 1.707159 -16.617231 1.954951 2.876553 -12.839142 -4.815803 3.784401 1.477927 -1.682090 1.709300 2.890655 0.000000 0.000000 0.000000 -141.014080 -62.542103 74.489868 7.658355 -12.997555 -0.873679 -0.000000 0.000001 43.434127 -11.644352 27.598868 -5.451947 -7.125020 0.000002 0.000000 -42.260134 52.460152 -9.079512 0.000000 0.000000 0.000000 91.270968 67.199752 -121.826311 -5.144852 8.828630 -0.397434 0.000002 -0.000001 145.125049 -8.694910 20.316657 -3.030422 7.125020 -0.000002 0.000000 12.644951 -9.842880 10.571375
4.797086 16.330499 -17.500681 -4.547897 -1.433325 30.161800 0.000000 0.000000 0.000000 -35.982425 8.353932 -48.653383 9.767972 17.822497 57.434662 -3.670341 46.996358 14.629921 0.572803 4.846814 13.472167 0.000000 0.000000 0.000000 29.345554 15.269926 -55.303037 -3.630375 -11.656929 34.497985 -0.080962 -14.708554 -21.299349 -0.111287 -2.150917 5.922919 1.432014 -0.217029 10.977950 11.957036 1.644323 -8.448152 12.971109 1.671187 -16.406778 2.071027 2.871672 -12.544875 -4.660390 3.759864 1.598715 -1.655130 1.706728 2.874194 0.000000 0.000000 0.000000 -141.951729 -60.540746 79.587675 7.881848 -13.361161 -0.924635 -0.000000 0.000001 39.610049 -10.930619 28.364248 -5.237783 -7.125020 0.000002 0.000000 -42.253588 53.178691 -9.890740 0.000000 0.000000 0.000000 97.904573 65.743225 -113.275113 -4.833437 8.303213 -0.351049 0.000001 -0.000001 137.613146 -9.768636 20.503946 -3.427533 7.125020 -0.000002 0.000000 11.954933 -9.572317 10.052704
4.776334 16.306070 -17.493727 -4.547866 -1.628473 29.939965 0.000000 0.000000 0.000000 -36.016952 8.254937 -48.880519 10.001640 17.961037 58.205522 -4.454668 46.973327 10.957480 0.921246 6.115109 17.118772 0.000000 0.000000 0.000000 29.172806 15.714272 -55.112955 -3.714266 -11.775407 34.911474 -0.080695 -15.015541 -21.732131 -0.107999 -2.119005 5.834654 1.044550 -0.219288 10.914506 11.864786 1.537568 -8.354375 13.098124 1.645181 -16.226401 2.167611 2.865724 -12.090072 -4.480183 3.736800 1.674218 -1.617756 1.707849 2.811016 0.000000 0.000000 0.000000 -142.549121 -58.546617 84.230834 8.129684 -13.762866 -0.982753 -0.000000 0.000002 35.969819 -10.073682 29.014084 -4.919155 -7.125020 0.000002 0.000000 -42.042798 53.838454 -10.563978 0.000000 0.000000 0.000000 103.711055 63.850457 -102.172898 -4.339082 7.465786 -0.283233 0.000001 -0.000001 126.593551 -10.266378 20.117525 -3.548305 7.125020 -0.000002 0.000000 11.640324 -9.906387 9.687869
4.754143 16.278915 -17.486984 -4.565664 -1.835054 29.676840 0.000000 0.000000 0.000000 -36.071191 8.220042 -49.153369 10.271356 18.116714 59.086004 -5.122057 46.682850 7.272581 1.338064 7.324255 20.679629 0.000000 0.000000 0.000000 29.069487 16.116571 -54.910658 -3.804641 -11.901003 35.352322 -0.071288 -15.330725 -22.084137 -0.094915 -1.986889 5.469424 0.645311 -0.215861 10.870931 11.787535 1.442196 -8.259766 13.242412 1.626023 -16.058992 2.205030 2.861955 -11.507914 -4.251820 3.724771 1.725915 -1.554560 1.716947 2.713377 0.000000 0.000000 0.000000 -143.052606 -56.542932 87.998791 8.369947 -14.150747 -1.040703 -0.000001 0.000002 32.945012 -9.205611 29.455192 -4.549096 -7.125020 0.000002 0.000000 -41.657940 54.346662 -10.998334 0.000000 0.000000 0.000000 108.472114 61.686497 -89.292085 -3.767193 6.492339 -0.213741 0.000001 -0.000001 112.616715 -10.269816 19.217686 -3.418486 7.125020 -0.000002 0.000000 11.648183 -10.786663 9.453365
4.731069 16.250117 -17.479498 -4.594558 -2.028154 29.370885 0.000000 0.000000 0.000000 -36.144906 8.246321 -49.442608 10.569004 18.283161 60.047148 -5.536928 46.075803 4.016922 1.729093 8.277406 23.559874 0.000000 0.000000 0.000000 29.042169 16.429667 -54.725325 -3.908226 -12.042454 35.851938 -0.064679 -15.592249 -22.387853 -0.078900 -1.811948 4.986237 0.250344 -0.214301 10.829194 11.728250 1.347939 -8.153393 13.404147 1.606388 -15.879176 2.161323 2.864764 -10.847594 -3.963350 3.731080 1.769492 -1.457168 1.736870 2.595227 0.000000 0.000000 0.000000 -143.577932 -54.570845 91.077427 8.604357 -14.527677 -1.098757 -0.000001 0.000002 30.311579 -8.581152 29.734374 -4.265132 -7.125020 0.000002 0.000000 -41.347887 54.690266 -11.258830 0.000000 0.000000 0.000000 112.301667 59.485308 -75.426844 -3.240564 5.592007 -0.158306 0.000000 -0.000001 96.613236 -9.979255 17.895063 -3.122663 7.125020 -0.000002 0.000000 11.854518 -12.109474 9.269037
4.707838 16.220516 -17.470131 -4.625902 -2.181519 29.026614 0.000000 0.000000 0.000000 -36.237377 8.321680 -49.719562 10.884270 18.453395 61.054027 -5.650523 45.095215 1.320086 2.004974 8.876429 25.409543 0.000000 0.000000 0.000000 29.088045 16.612910 -54.586056 -4.030887 -12.206612 36.436093 -0.073064 -15.742230 -22.684772 -0.066530 -1.664148 4.578366 -0.115543 -0.222298 10.766401 11.682558 1.245248 -8.026317 13.564440 1.576594 -15.658965 2.041407 2.873564 -10.183846 -3.616519 3.752564 1.831131 -1.327028 1.764742 2.479610 0.000000 0.000000 0.000000 -144.072658 -52.703682 94.027127 8.858449 -14.934547 -1.163369 -0.000001 0.000002 27.422851 -8.408604 29.967111 -4.191177 -7.125020 0.000002 0.000000 -41.383895 54.912977 -11.488442 0.000000 0.000000 0.000000 115.544600 57.388712 -61.144373 -2.857661 4.935320 -0.123178 0.000000 -0.000001 79.490259 -9.647524 16.257156 -2.763343 7.125020 -0.000002 0.000000 12.101140 -13.748918 9.032213
4.685457 16.190826 -17.456713 -4.649315 -2.273883 28.648340 0.000000 0.000000 0.000000 -36.350150 8.436379 -49.950053 11.204537 18.620116 62.065784 -5.462181 43.678083 -0.821409 2.102674 9.076746 26.035693 0.000000 0.000000 0.000000 29.204225 16.622832 -54.507771 -4.175671 -12.395887 37.115715 -0.104573 -15.741337 -22.999968 -0.060239 -1.583660 4.356375 -0.420567 -0.246740 10.658367 11.637656 1.126613 -7.874413 13.686695 1.526288 -15.374560 1.862281 2.881480 -9.589630 -3.215630 3.776526 1.941668 -1.169101 1.793087 2.390897 0.000000 0.000000 0.000000 -144.489253 -50.973310 96.941000 9.117783 -15.347939 -1.231107 -0.000001 0.000002 24.223309 -8.833433 30.124738 -4.403212 -7.125020 0.000002 0.000000 -41.862070 54.958208 -11.664466 0.000000 0.000000 0.000000 118.514694 55.344690 -46.808476 -2.690371 4.647927 -0.109204 0.000000 -0.000001 61.880575 -9.482564 14.416155 -2.416380 7.125020 -0.000002 0.000000 12.254725 -15.579845 8.667765
4.665022 16.161734 -17.436644 -4.657953 -2.290983 28.233681 0.000000 0.000000 0.000000 -36.480569 8.586795 -50.096083 11.517306 18.777107 63.043527 -5.006475 41.793920 -2.462619 2.005401 8.877316 25.412306 0.000000 0.000000 0.000000 29.394614 16.419452 -54.482207 -4.341799 -12.607335 37.883081 -0.160823 -15.584044 -23.336207 -0.058503 -1.560712 4.293097 -0.630521 -0.295213 10.490776 11.578765 0.984978 -7.698864 13.730551 1.446097 -15.015028 1.638771 2.880388 -9.094780 -2.764296 3.789413 2.116697 -0.987887 1.814854 2.340121 0.000000 0.000000 0.000000 -144.886087 -49.364675 99.358048 9.323097 -15.673855 -1.286013 -0.000001 0.000002 21.399889 -10.000373 30.016586 -4.957977 -7.125020 0.000002 0.000000 -42.740704 54.648689 -11.580292 0.000000 0.000000 0.000000 121.320584 53.163249 -32.703171 -2.810842 4.854919 -0.119183 0.000001 -0.000001 44.151443 -9.578103 12.450634 -2.104163 7.125020 -0.000002 0.000000 12.251420 -17.521454 8.155696
4.647002 16.133544 -17.409047 -4.655360 -2.230495 27.774346 0.000000 0.000000 0.000000 -36.613821 8.769286 -50.136605 11.814766 18.921186 63.964506 -4.365055 39.513828 -3.722382 1.751494 8.328052 23.715001 0.000000 0.000000 0.000000 29.661539 16.002717 -54.481526 -4.524936 -12.833677 38.714575 -0.235968 -15.314113 -23.687516 -0.058009 -1.554124 4.274934 -0.723037 -0.372268 10.274188 11.496947 0.817601 -7.503210 13.672017 1.332869 -14.590640 1.392134 2.865964 -8.681948 -2.282753 3.783123 2.348577 -0.794165 1.826177 2.322396 0.000000 0.000000 0.000000 -145.318205 -47.880063 101.054552 9.450571 -15.875591 -1.320668 -0.000001 0.000002 19.387772 -11.944576 29.551507 -5.861509 -7.125020 0.000002 0.000000 -43.982766 53.915182 -11.135588 0.000000 0.000000 0.000000 123.861999 50.659905 -19.111882 -3.286532 5.670732 -0.162817 0.000001 -0.000001 26.571991 -9.950983 10.382925 -1.808461 7.125020 -0.000002 0.000000 12.074145 -19.556488 7.507520
